<svg width="73" height="36" viewBox="0 0 73 36" fill="none" xmlns="http://www.w3.org/2000/svg">
<path d="M11.7 29H2.13V7.55H11.16C15.57 7.55 18.15 9.53 18.15 12.95C18.15 15.59 16.59 16.82 14.82 17.42V17.48C17.07 17.87 18.99 19.52 18.99 22.73C18.99 26.84 16.14 29 11.7 29ZM5.43 16.46H11.07C13.77 16.46 14.7 15.35 14.7 13.43C14.7 11.54 13.56 10.4 11.31 10.4H5.43V16.46ZM5.43 26.15H11.46C14.64 26.15 15.54 24.62 15.54 22.61C15.54 20.36 14.16 19.07 11.91 19.07H5.43V26.15ZM35.6412 21.02C35.6412 21.44 35.6412 21.89 35.6112 22.13H23.8512C23.9112 24.68 25.4112 27.05 28.4412 27.05C31.1412 27.05 32.1912 25.31 32.4612 24.29H35.4612C34.6512 27.23 32.4012 29.45 28.3812 29.45C23.5212 29.45 20.8212 26 20.8212 21.32C20.8212 16.52 23.7012 13.22 28.3812 13.22C33.0312 13.22 35.6412 16.28 35.6412 21.02ZM23.8512 19.82H32.5812C32.5812 17.42 30.9012 15.62 28.2912 15.62C25.8312 15.62 24.0312 17.3 23.8512 19.82Z" fill="black"/>
<path d="M49.6933 28.1399L67.4621 17.8811" stroke="black" stroke-width="2"/>
<path d="M56.2775 14.467L67.9557 17.5962L64.8265 29.2744" stroke="black" stroke-width="2"/>
</svg>
