<svg width="539" height="66" viewBox="0 0 539 66" fill="none" xmlns="http://www.w3.org/2000/svg">
<path d="M22.935 53H3.3V13.675H22.385C30.58 13.675 34.87 16.865 34.87 23.575C34.87 28.415 32.01 30.835 28.765 31.935V32.045C32.89 32.76 36.41 35.51 36.41 41.395C36.41 49.755 31.075 53 22.935 53ZM13.2 29.57H19.8C22.55 29.57 24.75 28.91 24.75 25.665C24.75 22.42 22.55 21.76 19.8 21.76H13.2V29.57ZM13.2 44.915H20.075C24.2 44.915 26.29 43.925 26.29 40.24C26.29 36.555 24.2 35.62 20.075 35.62H13.2V44.915ZM51.1736 53H41.2736V13.675H59.8086C68.5536 13.675 73.8336 17.745 73.8336 24.895C73.8336 30.395 70.7536 33.64 65.8586 34.74V34.85C75.7036 36.555 72.1286 51.79 74.3836 52.45V53H64.0986C62.1736 51.35 65.7486 39.305 57.3336 39.305H51.1736V53ZM51.1736 31.22H57.8836C61.8436 31.22 63.9336 29.79 63.9336 26.49C63.9336 23.19 61.8436 21.76 57.8836 21.76H51.1736V31.22ZM86.1798 53H75.5648L90.5248 13.675H100.48L115.55 53H104.715L102.185 44.805H88.7098L86.1798 53ZM95.4198 22.75L90.9648 37.27H99.9848L95.5298 22.75H95.4198ZM128.41 53H118.51V13.675H128.41L142.16 37.05H142.27V13.675H152.17V53H142.27L128.52 29.625H128.41V53ZM176.778 53H158.793V13.675H176.228C187.173 13.675 193.773 20.715 193.773 33.365C193.773 46.015 187.723 53 176.778 53ZM168.693 44.915H175.018C181.178 44.915 183.653 40.515 183.653 33.365C183.653 26.215 181.178 21.76 175.018 21.76H168.693V44.915ZM203.703 53H199.688V13.675H203.703V53ZM216.056 53H212.041V13.675H216.936L238.221 47.335H238.331V13.675H242.346V53H237.451L216.166 19.34H216.056V53ZM266.553 53.715C255.003 53.715 248.788 45.08 248.788 33.365C248.788 21.705 255.883 12.96 267.048 12.96C276.453 12.96 281.843 17.91 283.218 25.335H279.093C277.938 19.615 273.373 16.48 267.048 16.48C257.203 16.48 252.968 25.17 252.968 33.365C252.968 41.615 256.378 50.195 266.553 50.195C274.198 50.195 279.863 44.64 279.863 36.39H266.828V32.815H283.878V53H281.128L279.918 46.015H279.808C277.333 50.635 273.263 53.715 266.553 53.715Z" fill="black"/>
<path d="M310.5 32.0002L536 32.0002" stroke="black" stroke-width="2"/>
<path d="M533 29L537 32.5L533 36" stroke="black" stroke-width="2"/>
</svg>
