<svg width="34" height="34" viewBox="0 0 34 34" fill="none" xmlns="http://www.w3.org/2000/svg">
<path d="M33.4624 17.3164C33.4624 21.8639 31.8421 25.7401 28.6016 28.9448C25.3789 32.1317 21.5117 33.7251 17 33.7251C12.4525 33.7251 8.58529 32.1227 5.39844 28.918C2.21159 25.6953 0.60026 21.8281 0.564453 17.3164C0.564453 12.8405 2.14893 8.98226 5.31787 5.7417C8.48682 2.50114 12.3809 0.880859 17 0.880859C21.6191 0.880859 25.5132 2.50114 28.6821 5.7417C31.869 8.98226 33.4624 12.8405 33.4624 17.3164ZM12.8374 13.9058C12.8374 13.3328 12.6226 12.8494 12.1929 12.4556C11.7632 12.0438 11.2798 11.8379 10.7427 11.8379C10.1519 11.8379 9.65055 12.0438 9.23877 12.4556C8.84489 12.8494 8.64795 13.3328 8.64795 13.9058C8.64795 14.4608 8.84489 14.9531 9.23877 15.3828C9.65055 15.7946 10.1519 16.0005 10.7427 16.0005C11.2798 16.0005 11.7632 15.7946 12.1929 15.3828C12.6226 14.9531 12.8374 14.4608 12.8374 13.9058ZM25.3789 13.9058C25.3789 13.3328 25.173 12.8494 24.7612 12.4556C24.3494 12.0438 23.875 11.8379 23.3379 11.8379C22.7471 11.8379 22.2368 12.0438 21.8071 12.4556C21.3953 12.8494 21.1895 13.3328 21.1895 13.9058C21.1895 14.4608 21.3953 14.9531 21.8071 15.3828C22.2368 15.7946 22.7471 16.0005 23.3379 16.0005C23.875 16.0005 24.3494 15.7946 24.7612 15.3828C25.173 14.9531 25.3789 14.4608 25.3789 13.9058ZM9.42676 22.6069C11.1813 25.937 13.7057 27.6021 17 27.6021C20.3122 27.6021 22.8455 25.937 24.6001 22.6069L22.9351 21.667C21.5923 24.1198 19.6139 25.3462 17 25.3462C14.3682 25.3462 12.3719 24.1198 11.0112 21.667L9.42676 22.6069Z" fill="black"/>
</svg>
