<svg width="222" height="64" viewBox="0 0 222 64" fill="none" xmlns="http://www.w3.org/2000/svg">
<rect width="222" height="64" rx="32" fill="#9F9F9F"/>
<path d="M64.8532 43H55.0432V21.55H64.5532C70.5232 21.55 74.1232 25.39 74.1232 32.29C74.1232 39.19 70.8232 43 64.8532 43ZM60.4432 38.59H63.8932C67.2532 38.59 68.6032 36.19 68.6032 32.29C68.6032 28.39 67.2532 25.96 63.8932 25.96H60.4432V38.59ZM80.2392 43.48C77.2392 43.48 75.3492 41.71 75.3492 38.98C75.3492 35.8 77.9592 34.57 81.2292 33.88C82.9092 33.52 85.2792 33.28 85.2792 31.75C85.2792 30.91 84.6192 30.37 83.2392 30.37C81.4692 30.37 80.6592 31.09 80.5092 32.59H75.9492C76.0992 29.65 78.2592 27.13 83.4492 27.13C87.6192 27.13 89.9292 28.81 89.9292 33.52V39.46C89.9292 40.27 90.0192 40.63 90.4992 40.63C90.6192 40.63 90.7092 40.63 90.8892 40.6V42.88C89.9292 43.06 88.9392 43.15 88.2492 43.15C86.3292 43.15 85.6092 42.43 85.3692 41.14H85.3092C84.2292 42.49 82.4592 43.48 80.2392 43.48ZM82.2492 40.18C84.1692 40.18 85.2792 38.56 85.2792 36.79V35.5C84.6492 35.74 83.9292 35.92 82.6692 36.22C80.8992 36.64 80.2692 37.39 80.2692 38.47C80.2692 39.64 81.0192 40.18 82.2492 40.18ZM97.7128 43H92.9128V21.55H97.7128V43ZM115.534 35.89V36.61H104.494C104.494 38.74 105.994 39.91 107.794 39.91C109.504 39.91 110.224 39.13 110.524 38.35H115.414C114.544 41.47 111.994 43.51 107.674 43.51C102.694 43.51 99.6942 40.12 99.6942 35.32C99.6942 30.82 102.514 27.13 107.674 27.13C112.894 27.13 115.534 30.22 115.534 35.89ZM104.524 33.64H110.704C110.704 31.66 109.534 30.61 107.674 30.61C105.844 30.61 104.644 31.66 104.524 33.64ZM130.524 43.51C125.664 43.51 122.604 40.12 122.604 35.32C122.604 30.55 125.664 27.13 130.404 27.13C134.844 27.13 137.544 29.77 137.934 33.37H133.104C132.954 32.11 132.414 30.73 130.494 30.73C128.514 30.73 127.524 32.44 127.524 35.32C127.524 38.2 128.484 39.91 130.494 39.91C132.384 39.91 132.954 38.62 133.104 37.21H137.934C137.694 40.87 134.934 43.51 130.524 43.51ZM144.529 43H139.729V21.55H144.529V43ZM151.971 25.81H147.171V21.55H151.971V25.81ZM151.971 43H147.171V27.64H151.971V43ZM161.872 43.51C157.012 43.51 153.952 40.12 153.952 35.32C153.952 30.55 157.012 27.13 161.752 27.13C166.192 27.13 168.892 29.77 169.282 33.37H164.452C164.302 32.11 163.762 30.73 161.842 30.73C159.862 30.73 158.872 32.44 158.872 35.32C158.872 38.2 159.832 39.91 161.842 39.91C163.732 39.91 164.302 38.62 164.452 37.21H169.282C169.042 40.87 166.282 43.51 161.872 43.51Z" fill="black"/>
</svg>
