<svg width="59" height="36" viewBox="0 0 59 36" fill="none" xmlns="http://www.w3.org/2000/svg">
<path d="M5.43 29H2.13V7.55H5.43V29ZM19.657 15.5V13.7H22.597V27.8C22.597 32.42 19.807 34.49 15.427 34.49C11.047 34.49 8.85703 32.39 8.55703 29.63H11.617C11.917 31.01 12.937 32.09 15.427 32.09C18.217 32.09 19.657 30.86 19.657 27.98V25.91H19.597C18.757 27.14 17.347 28.22 14.887 28.22C11.077 28.22 8.13703 25.64 8.13703 20.75C8.13703 15.83 11.077 13.25 14.887 13.25C17.347 13.25 18.757 14.42 19.597 15.5H19.657ZM15.427 25.79C18.067 25.79 19.627 24.08 19.627 20.75C19.627 17.39 18.067 15.71 15.427 15.71C12.547 15.71 11.197 17.87 11.197 20.75C11.197 23.63 12.547 25.79 15.427 25.79Z" fill="black"/>
<path d="M36.2746 28.1399L54.0434 17.8811" stroke="black" stroke-width="2"/>
<path d="M42.8588 14.467L54.537 17.5962L51.4078 29.2744" stroke="black" stroke-width="2"/>
</svg>
