<svg width="564" height="66" viewBox="0 0 564 66" fill="none" xmlns="http://www.w3.org/2000/svg">
<path d="M335 32.0002L560.5 32.0002" stroke="black" stroke-width="2"/>
<path d="M557.5 29L561.5 32.5L557.5 36" stroke="black" stroke-width="2"/>
<path d="M13.2 53H3.3V13.675H22.385C30.58 13.675 35.695 17.965 35.695 26.215C35.695 34.465 30.58 38.755 22.385 38.755H13.2V53ZM13.2 30.67H20.075C23.485 30.67 25.575 29.515 25.575 26.215C25.575 22.915 23.485 21.76 20.075 21.76H13.2V30.67ZM43.1574 53H32.5424L47.5024 13.675H57.4574L72.5274 53H61.6924L59.1624 44.805H45.6874L43.1574 53ZM52.3974 22.75L47.9424 37.27H56.9624L52.5074 22.75H52.3974ZM91.0899 53.88C78.6049 53.88 72.2799 45.19 72.2799 33.475C72.2799 21.43 78.9349 12.795 91.3649 12.795C102.09 12.795 107.81 19.175 108.745 28.305H98.6249C97.9099 24.015 96.1499 20.88 90.9249 20.88C84.3799 20.88 82.3999 25.94 82.3999 33.31C82.3999 40.735 84.3799 45.795 90.9249 45.795C96.2049 45.795 97.9649 42.66 98.6249 38.26H108.745C107.865 47.28 101.925 53.88 91.0899 53.88ZM148.941 53H137.391L127.216 37.655L123.146 42.385V53H113.246V13.675H123.146V30.45L137.226 13.675H147.841L133.046 30.89L148.941 53ZM152.54 53H148.415L163.1 13.675H167.61L182.405 53H178.115L174.155 42.11H156.5L152.54 53ZM165.3 17.47L157.82 38.535H172.89L165.41 17.47H165.3ZM201.509 53.715C189.959 53.715 183.744 45.08 183.744 33.365C183.744 21.705 190.839 12.96 202.004 12.96C211.409 12.96 216.799 17.91 218.174 25.335H214.049C212.894 19.615 208.329 16.48 202.004 16.48C192.159 16.48 187.924 25.17 187.924 33.365C187.924 41.615 191.334 50.195 201.509 50.195C209.154 50.195 214.819 44.64 214.819 36.39H201.784V32.815H218.834V53H216.084L214.874 46.015H214.764C212.289 50.635 208.219 53.715 201.509 53.715ZM229.753 53H225.738V13.675H229.753V53ZM242.106 53H238.091V13.675H242.986L264.271 47.335H264.381V13.675H268.396V53H263.501L242.216 19.34H242.106V53ZM292.603 53.715C281.053 53.715 274.838 45.08 274.838 33.365C274.838 21.705 281.933 12.96 293.098 12.96C302.503 12.96 307.893 17.91 309.268 25.335H305.143C303.988 19.615 299.423 16.48 293.098 16.48C283.253 16.48 279.018 25.17 279.018 33.365C279.018 41.615 282.428 50.195 292.603 50.195C300.248 50.195 305.913 44.64 305.913 36.39H292.878V32.815H309.928V53H307.178L305.968 46.015H305.858C303.383 50.635 299.313 53.715 292.603 53.715Z" fill="black"/>
</svg>
