<svg width="622" height="66" viewBox="0 0 622 66" fill="none" xmlns="http://www.w3.org/2000/svg">
<path d="M19.415 53.88C7.535 53.88 2.97 48.6 2.97 38.81V13.675H12.87V38.81C12.87 43.925 15.07 45.795 19.415 45.795C23.76 45.795 25.96 43.925 25.96 38.81V13.675H35.86V38.81C35.86 48.6 31.295 53.88 19.415 53.88ZM49.0695 53H38.0695L51.1045 32.925L39.1695 13.675H49.6195L56.8245 25.665H56.9345L64.1945 13.675H74.6445L62.7095 32.815L75.7445 53H64.7445L56.9345 40.24H56.8245L49.0695 53ZM83.9708 53H76.8208L92.0558 13.675H99.2058L83.9708 53ZM128.556 53.88C116.676 53.88 112.111 48.6 112.111 38.81V13.675H122.011V38.81C122.011 43.925 124.211 45.795 128.556 45.795C132.901 45.795 135.101 43.925 135.101 38.81V13.675H145.001V38.81C145.001 48.6 140.436 53.88 128.556 53.88ZM161.174 53H151.274V13.675H161.174V53ZM193.197 53H179.117V13.675H193.362C204.362 13.675 210.467 21.265 210.467 33.42C210.467 45.575 204.197 53 193.197 53ZM183.132 49.48H193.197C203.042 49.48 206.287 42.11 206.287 33.42C206.287 24.675 203.207 17.195 193.307 17.195H183.132V49.48ZM244.155 53H216.875V13.675H243.55V17.195H220.89V30.725H241.13V34.245H220.89V49.48H244.155V53ZM264.15 53.715C254.69 53.715 247.87 48.82 247.32 39.965H251.5C252.05 46.07 255.79 50.195 263.985 50.195C271.245 50.195 273.72 46.73 273.72 42.385C273.775 36.555 269.705 35.565 261.62 33.75C255.185 32.265 248.97 30.285 248.97 23.08C248.97 16.81 253.975 12.96 262.06 12.96C270.585 12.96 275.975 17.305 276.58 25.005H272.4C271.74 19.56 268.715 16.48 262.06 16.48C256.285 16.48 253.15 18.845 253.15 22.915C253.15 28.195 257.825 29.295 263.6 30.56C271.685 32.32 277.9 34.3 277.9 42.275C277.9 48.655 273.5 53.715 264.15 53.715ZM287.922 53H283.907V13.675H287.922V53ZM312.1 53.715C300.55 53.715 294.335 45.08 294.335 33.365C294.335 21.705 301.43 12.96 312.595 12.96C322 12.96 327.39 17.91 328.765 25.335H324.64C323.485 19.615 318.92 16.48 312.595 16.48C302.75 16.48 298.515 25.17 298.515 33.365C298.515 41.615 301.925 50.195 312.1 50.195C319.745 50.195 325.41 44.64 325.41 36.39H312.375V32.815H329.425V53H326.675L325.465 46.015H325.355C322.88 50.635 318.81 53.715 312.1 53.715ZM340.343 53H336.328V13.675H341.223L362.508 47.335H362.618V13.675H366.633V53H361.738L340.453 19.34H340.343V53Z" fill="black"/>
<path d="M393 32.0002L618.5 32.0002" stroke="black" stroke-width="2"/>
<path d="M615.5 29L619.5 32.5L615.5 36" stroke="black" stroke-width="2"/>
</svg>
